<?xml version="1.0" encoding="utf-8"?>
<!-- Generator: Adobe Illustrator 17.1.0, SVG Export Plug-In . SVG Version: 6.00 Build 0)  -->
<!DOCTYPE svg PUBLIC "-//W3C//DTD SVG 1.1//EN" "http://www.w3.org/Graphics/SVG/1.1/DTD/svg11.dtd">
<svg version="1.2" baseProfile="tiny" xmlns="http://www.w3.org/2000/svg" xmlns:ev="http://www.w3.org/2001/xml-events"
xmlns:xlink="http://www.w3.org/1999/xlink" viewBox="0 0 500 500" width="500" height="500">
<path fill="#2D2D2D" d="M399.6,57.9H104.9c-23.6,0-42.8,19.2-42.8,42.8v294.7c0,23.6,19.2,42.8,42.8,42.8h294.7
	c23.6,0,42.8-19.2,42.8-42.8V100.7C442.4,77.1,423.2,57.9,399.6,57.9z M315,265.7c0,34.7-28.1,62.8-62.8,62.8s-62.8-28.1-62.8-62.8
	c0-13.4,4.2-25.8,11.4-36l0,0c1.3-1.9,2.8-3.7,4.3-5.5c0.2-0.3,0.5-0.5,0.7-0.8c1.4-1.5,2.8-3,4.3-4.3c0.3-0.3,0.6-0.5,0.8-0.8
	c1.7-1.5,3.4-2.9,5.3-4.1c0.1-0.1,0.2-0.1,0.3-0.2c2-1.4,4.1-2.7,6.2-3.8c0.1-0.1,0.2-0.1,0.3-0.1c1.9-1,3.9-1.9,5.9-2.7
	c0.6-0.2,1.2-0.5,1.9-0.7c1.6-0.6,3.2-1.1,4.8-1.5c0.8-0.2,1.5-0.4,2.3-0.6c1.6-0.4,3.3-0.7,4.9-0.9c0.7-0.1,1.4-0.2,2.2-0.3
	c2.4-0.3,4.8-0.4,7.2-0.4c2.5,0,4.9,0.2,7.2,0.4c0.7,0.1,1.4,0.2,2.2,0.3c1.7,0.3,3.3,0.5,4.9,0.9c0.8,0.2,1.5,0.4,2.3,0.6
	c1.6,0.4,3.2,1,4.8,1.5c0.6,0.2,1.2,0.4,1.9,0.7c2,0.8,4,1.7,5.9,2.7c0.1,0.1,0.2,0.1,0.3,0.1c2.2,1.2,4.2,2.4,6.2,3.8
	c0.1,0.1,0.2,0.1,0.3,0.2c1.8,1.3,3.6,2.7,5.2,4.1c0.3,0.2,0.6,0.5,0.8,0.8c1.5,1.4,3,2.8,4.3,4.3c0.2,0.3,0.5,0.5,0.7,0.8
	c1.5,1.7,3,3.6,4.3,5.5l0,0C310.8,239.9,315,252.3,315,265.7z M408.6,374.4c0,14.6-11.8,26.4-26.4,26.4H122.3
	c-14.6,0-26.4-11.8-26.4-26.4V229.7h69.5c-4.6,11.1-7.2,23.2-7.2,36c0,51.9,42.1,94,94,94s94-42.1,94-94c0-12.7-2.6-24.9-7.2-36
	h69.5V374.4z M410.5,135.4c0,8.9-7.2,16.2-16.2,16.2h-31.9c-8.9,0-16.2-7.2-16.2-16.2v-31.9c0-8.9,7.2-16.2,16.2-16.2h31.9
	c8.9,0,16.2,7.2,16.2,16.2V135.4z"/>
</svg>
